<?xml version="1.0" encoding="UTF-8" standalone="no"?>
<!-- Created with Inkscape (http://www.inkscape.org/) -->

<svg
   width="210mm"
   height="297mm"
   viewBox="0 0 210 297"
   version="1.1"
   id="svg1"
   inkscape:export-filename="bitmap.svg"
   inkscape:export-xdpi="96"
   inkscape:export-ydpi="96"
   xmlns:inkscape="http://www.inkscape.org/namespaces/inkscape"
   xmlns:sodipodi="http://sodipodi.sourceforge.net/DTD/sodipodi-0.dtd"
   xmlns:xlink="http://www.w3.org/1999/xlink"
   xmlns="http://www.w3.org/2000/svg"
   xmlns:svg="http://www.w3.org/2000/svg">
  <sodipodi:namedview
     id="namedview1"
     pagecolor="#ffffff"
     bordercolor="#000000"
     borderopacity="0.25"
     inkscape:showpageshadow="2"
     inkscape:pageopacity="0.0"
     inkscape:pagecheckerboard="0"
     inkscape:deskcolor="#d1d1d1"
     inkscape:document-units="mm"
     inkscape:export-bgcolor="#ffffff00" />
  <defs
     id="defs1">
    <linearGradient
       id="linearGradient42"
       inkscape:collect="always">
      <stop
         style="stop-color:#da7162;stop-opacity:1;"
         offset="0.4359926"
         id="stop41" />
      <stop
         style="stop-color:#0a1d9f;stop-opacity:0.54901963;"
         offset="0.98515773"
         id="stop42" />
    </linearGradient>
    <linearGradient
       id="linearGradient40"
       inkscape:collect="always">
      <stop
         style="stop-color:#da7162;stop-opacity:1;"
         offset="0"
         id="stop39" />
      <stop
         style="stop-color:#0a1d9f;stop-opacity:0.54901963;"
         offset="1"
         id="stop40" />
    </linearGradient>
    <linearGradient
       id="linearGradient31"
       inkscape:collect="always">
      <stop
         style="stop-color:#da7162;stop-opacity:1;"
         offset="0.42857143"
         id="stop30" />
      <stop
         style="stop-color:#0a1d9f;stop-opacity:0.54901963;"
         offset="1"
         id="stop31" />
    </linearGradient>
    <linearGradient
       id="linearGradient18"
       inkscape:collect="always">
      <stop
         style="stop-color:#da7162;stop-opacity:1;"
         offset="0.38961038"
         id="stop18" />
      <stop
         style="stop-color:#0a1d9f;stop-opacity:0.54901963;"
         offset="1"
         id="stop19" />
    </linearGradient>
    <linearGradient
       inkscape:collect="always"
       xlink:href="#linearGradient67"
       id="linearGradient68"
       x1="146.96307"
       y1="197.28279"
       x2="227.80353"
       y2="197.28279"
       gradientUnits="userSpaceOnUse" />
    <linearGradient
       id="linearGradient67"
       inkscape:collect="always">
      <stop
         style="stop-color:#da7162;stop-opacity:1;"
         offset="0.29870129"
         id="stop67" />
      <stop
         style="stop-color:#0a1d9f;stop-opacity:0.54901963;"
         offset="0.73283857"
         id="stop68" />
    </linearGradient>
    <linearGradient
       inkscape:collect="always"
       xlink:href="#linearGradient18"
       id="linearGradient19"
       x1="54.685699"
       y1="101.11418"
       x2="67.049881"
       y2="101.11418"
       gradientUnits="userSpaceOnUse" />
    <linearGradient
       inkscape:collect="always"
       xlink:href="#linearGradient40"
       id="linearGradient23"
       x1="62.057476"
       y1="94.000992"
       x2="62.818401"
       y2="94.000992"
       gradientUnits="userSpaceOnUse" />
    <linearGradient
       inkscape:collect="always"
       xlink:href="#linearGradient42"
       id="linearGradient24"
       x1="59.522854"
       y1="98.881119"
       x2="60.283779"
       y2="98.881119"
       gradientUnits="userSpaceOnUse" />
    <linearGradient
       inkscape:collect="always"
       xlink:href="#linearGradient31"
       id="linearGradient30"
       x1="60.667759"
       y1="110.66096"
       x2="61.428684"
       y2="110.66096"
       gradientUnits="userSpaceOnUse" />
  </defs>
  <g
     inkscape:label="Capa 1"
     inkscape:groupmode="layer"
     id="layer1">
    <path
       sodipodi:type="star"
       style="fill:#ffffff;fill-opacity:1;fill-rule:evenodd;stroke:url(#linearGradient68);stroke-width:1.60996;stroke-dasharray:none;stroke-opacity:1"
       id="path66"
       inkscape:flatsided="true"
       sodipodi:sides="6"
       sodipodi:cx="187.3833"
       sodipodi:cy="197.28279"
       sodipodi:r1="46.669048"
       sodipodi:r2="40.41658"
       sodipodi:arg1="1.5707963"
       sodipodi:arg2="2.0943951"
       inkscape:rounded="0"
       inkscape:randomized="0"
       d="m 187.3833,243.95184 -40.41658,-23.33452 0,-46.66905 40.41658,-23.33453 40.41658,23.33453 0,46.66904 z"
       transform="matrix(0.54920129,0,0,0.54920129,-36.222094,-5.155959)"
       inkscape:transform-center-x="-0.0011363207"
       inkscape:transform-center-y="-0.00012369954" />
    <path
       sodipodi:type="star"
       style="fill:#ffffff;fill-opacity:0.0505494;fill-rule:evenodd;stroke:#000000;stroke-width:0.145481;stroke-dasharray:none;stroke-opacity:1"
       id="path66-76"
       inkscape:flatsided="true"
       sodipodi:sides="6"
       sodipodi:cx="187.3833"
       sodipodi:cy="197.28279"
       sodipodi:r1="46.669048"
       sodipodi:r2="40.41658"
       sodipodi:arg1="1.5707963"
       sodipodi:arg2="2.0943951"
       inkscape:rounded="0"
       inkscape:randomized="0"
       d="m 187.3833,243.95184 -40.41658,-23.33452 0,-46.66905 40.41658,-23.33453 40.41658,23.33453 0,46.66904 z"
       transform="matrix(0.56064329,0,0,0.56064329,-38.358425,-7.433183)"
       inkscape:transform-center-x="-0.0019480572"
       inkscape:transform-center-y="-0.00012215584" />
    <path
       sodipodi:type="star"
       style="fill:#ffffff;fill-opacity:0.0505494;fill-rule:evenodd;stroke:#000000;stroke-width:0.145481;stroke-dasharray:none;stroke-opacity:1"
       id="path66-76-1"
       inkscape:flatsided="true"
       sodipodi:sides="6"
       sodipodi:cx="187.3833"
       sodipodi:cy="197.28279"
       sodipodi:r1="46.669048"
       sodipodi:r2="40.41658"
       sodipodi:arg1="1.5707963"
       sodipodi:arg2="2.0943951"
       inkscape:rounded="0"
       inkscape:randomized="0"
       d="m 187.3833,243.95184 -40.41658,-23.33452 0,-46.66905 40.41658,-23.33453 40.41658,23.33453 0,46.66904 z"
       transform="matrix(0.53802283,0,0,0.53802283,-34.117466,-2.961338)"
       inkscape:transform-center-x="-0.0024585985"
       inkscape:transform-center-y="-0.00045611439" />
    <rect
       style="fill:#0a1d9f;fill-opacity:0.54902;fill-rule:evenodd;stroke:#000000;stroke-width:0.0777758;stroke-dasharray:none;stroke-opacity:1"
       id="rect104"
       width="0.85944474"
       height="23.491488"
       x="-36.405739"
       y="97.888412"
       transform="rotate(-60)" />
    <text
       xml:space="preserve"
       style="font-size:17.6896px;font-family:'Bauhaus 93';-inkscape-font-specification:'Bauhaus 93, @wdth=87.0';font-variation-settings:'wdth' 87;fill:#da7162;fill-opacity:1;stroke:#000000;stroke-width:0.161;stroke-dasharray:none"
       x="45.524494"
       y="105.06189"
       id="text52-0"
       sodipodi:insensitive="true"><tspan
         sodipodi:role="line"
         id="tspan52-0"
         style="font-style:normal;font-variant:normal;font-weight:normal;font-stretch:normal;font-size:17.6896px;font-family:'Century Schoolbook';-inkscape-font-specification:'Century Schoolbook, Normal';font-variant-ligatures:normal;font-variant-caps:normal;font-variant-numeric:normal;font-variant-east-asian:normal;opacity:0.97;fill:#da7162;fill-opacity:1;stroke-width:0.161;stroke-dasharray:none"
         x="45.524494"
         y="105.06189">d</tspan></text>
    <text
       xml:space="preserve"
       style="font-size:5.79054px;font-family:'Bauhaus 93';-inkscape-font-specification:'Bauhaus 93, @wdth=87.0';font-variation-settings:'wdth' 87;fill:#da7162;fill-opacity:1;stroke:#000000;stroke-width:0.1;stroke-dasharray:none"
       x="54.047329"
       y="98.193413"
       id="text52-0-4"
       sodipodi:insensitive="true"><tspan
         sodipodi:role="line"
         id="tspan52-0-4"
         style="font-style:normal;font-variant:normal;font-weight:normal;font-stretch:normal;font-size:5.79054px;font-family:'Century Schoolbook';-inkscape-font-specification:'Century Schoolbook, Normal';font-variant-ligatures:normal;font-variant-caps:normal;font-variant-numeric:normal;font-variant-east-asian:normal;opacity:0.97;fill:#da7162;fill-opacity:1;stroke-width:0.1;stroke-dasharray:none"
         x="54.047329"
         y="98.193413">re</tspan></text>
    <text
       xml:space="preserve"
       style="font-size:17.6896px;font-family:'Bauhaus 93';-inkscape-font-specification:'Bauhaus 93, @wdth=87.0';font-variation-settings:'wdth' 87;fill:#0a1d9f;fill-opacity:0.54902;stroke:#000000;stroke-width:0.161061;stroke-dasharray:none"
       x="65.297379"
       y="114.76722"
       id="text52-0-7"
       sodipodi:insensitive="true"><tspan
         sodipodi:role="line"
         id="tspan52-0-7"
         style="font-style:normal;font-variant:normal;font-weight:normal;font-stretch:normal;font-size:17.6896px;font-family:'Century Schoolbook';-inkscape-font-specification:'Century Schoolbook, Normal';font-variant-ligatures:normal;font-variant-caps:normal;font-variant-numeric:normal;font-variant-east-asian:normal;opacity:0.97;fill:#0a1d9f;fill-opacity:0.54902;stroke-width:0.161061;stroke-dasharray:none"
         x="65.297379"
         y="114.76722">ml</tspan></text>
    <ellipse
       style="fill:#3343b0;fill-opacity:0.54902;fill-rule:evenodd;stroke:#000000;stroke-width:0.1;stroke-dasharray:none"
       id="path33-6"
       cx="64.590286"
       cy="104.82288"
       rx="0.37474406"
       ry="0.38657808" />
    <ellipse
       style="fill:#3343b0;fill-opacity:0.54902;fill-rule:evenodd;stroke:#000000;stroke-width:0.1;stroke-dasharray:none"
       id="path33-62"
       cx="63.115055"
       cy="108.70366"
       rx="0.37474406"
       ry="0.38657808" />
    <ellipse
       style="fill:#da7162;fill-opacity:1;fill-rule:evenodd;stroke:#000000;stroke-width:0.1;stroke-dasharray:none"
       id="path33-3"
       cx="58.041416"
       cy="106.68832"
       rx="0.37474406"
       ry="0.38657808" />
    <ellipse
       style="display:inline;fill:url(#linearGradient30);fill-rule:evenodd;stroke:#000000;stroke-width:0.1;stroke-dasharray:none"
       id="path33-0"
       cx="61.048222"
       cy="110.66096"
       rx="0.37474406"
       ry="0.38657808" />
    <ellipse
       style="fill:#da7162;fill-opacity:1;fill-rule:evenodd;stroke:#000000;stroke-width:0.1;stroke-dasharray:none"
       id="path33-1"
       cx="57.775955"
       cy="102.81236"
       rx="0.37474406"
       ry="0.38657808" />
    <ellipse
       style="fill:#3343b0;fill-opacity:0.54902;fill-rule:evenodd;stroke:#000000;stroke-width:0.1;stroke-dasharray:none"
       id="path33-4"
       cx="63.114376"
       cy="100.88555"
       rx="0.37474406"
       ry="0.38657808" />
    <path
       id="path25"
       style="fill:url(#linearGradient19);stroke:#000000;stroke-width:0.126;stroke-dasharray:none;stroke-opacity:1"
       d="m 55.614996,88.836845 c -0.01,0.03454 -0.0186,0.263721 -0.0202,0.509283 -0.002,0.245563 0.0129,0.570666 0.0322,0.722475 0.0193,0.151812 0.0599,0.394421 0.0901,0.539087 0.0303,0.144661 0.11031,0.434785 0.17785,0.644708 0.0675,0.209923 0.19509,0.547641 0.28342,0.750484 0.0883,0.202843 0.24836,0.528982 0.35565,0.724732 0.10725,0.19575 0.29239,0.504311 0.41135,0.685695 0.11896,0.181386 0.30272,0.44859 0.40833,0.59377 0.10559,0.145182 0.31431,0.412585 0.46383,0.59418 0.14953,0.181595 0.49502,0.560729 0.76772,0.842512 0.27267,0.28178 0.64268,0.64343 0.82215,0.80363 0.17947,0.1602 0.46145,0.40075 0.62665,0.53457 0.16521,0.13381 0.38263,0.3022 0.48307,0.37416 0.10047,0.072 0.33561,0.25501 0.52252,0.40679 0.1869,0.1518 0.46279,0.384197 0.6131,0.516417 0.15032,0.13222 0.37935,0.3454 0.50893,0.47373 0.2356,0.23333 0.2356,0.2333 0.0125,0.21709 -0.12272,-0.009 -0.54811,-0.0263 -0.94526,-0.0386 -0.72213,-0.0224 -0.72212,-0.0224 -0.72524,0.18246 -0.003,0.2049 -0.003,0.20492 0.7078,0.19185 0.39103,-0.007 0.87721,-0.024 1.08043,-0.0374 0.36949,-0.0244 0.36951,-0.0244 0.60619,0.2217 0.13017,0.13536 0.33021,0.35433 0.44454,0.48661 0.11434,0.13229 0.29519,0.352192 0.40187,0.488662 0.10663,0.13648 0.24383,0.31714 0.30481,0.40146 0.11085,0.15331 0.11083,0.15335 -0.11424,0.13353 -0.14644,-0.0129 -0.22499,-0.0105 -0.22525,0.007 0,0.0146 -0.008,0.0649 -0.0178,0.11167 -0.0176,0.0851 -0.0177,0.085 0.27024,0.0682 0.28788,-0.0168 0.28786,-0.0168 0.35405,0.0716 0.0364,0.0486 0.15404,0.23672 0.26141,0.41802 0.10738,0.18131 0.24849,0.43765 0.31359,0.56966 0.0651,0.13202 0.16572,0.35609 0.2236,0.4979 0.10523,0.25782 0.1052,0.25782 -0.21673,0.23827 -0.17707,-0.0107 -0.55233,-0.0331 -0.8339,-0.0495 -0.28157,-0.0165 -1.12648,-0.0448 -1.87749,-0.0629 -0.77505,-0.0187 -1.88806,-0.0269 -2.57385,-0.0189 -0.66455,0.008 -1.21126,0.0147 -1.21488,0.0157 -0.004,9.9e-4 -0.007,0.0655 -0.008,0.14348 -9.7e-4,0.14171 -9.7e-4,0.14174 0.20248,0.15835 0.11189,0.009 0.73522,0.0273 1.38519,0.0404 0.64993,0.0131 1.74326,0.0149 2.4295,0.004 0.68625,-0.0109 1.46644,-0.0297 1.73376,-0.0418 0.26733,-0.0121 0.62891,-0.0289 0.80347,-0.0373 0.3174,-0.0152 0.31738,-0.0152 0.39725,0.27127 0.0439,0.15756 0.0971,0.38116 0.11824,0.49687 0.0211,0.11571 0.05,0.30292 0.0642,0.41602 0.0142,0.11309 0.0251,0.30521 0.0243,0.42695 -0.002,0.22134 -0.002,0.22138 -0.18539,0.22012 -0.17583,-0.001 -0.18384,10e-4 -0.18426,0.0608 -4e-4,0.0608 0.004,0.0619 0.18759,0.05 0.18803,-0.0122 0.18806,-0.0122 0.16857,0.20822 -0.0107,0.1212 -0.0383,0.32664 -0.0614,0.4565 -0.023,0.12985 -0.0711,0.34818 -0.10686,0.48517 -0.0357,0.13697 -0.0998,0.34929 -0.1424,0.47178 -0.0774,0.22272 -0.0774,0.22269 -0.19272,0.21853 -0.0634,-0.002 -0.3457,-0.0191 -0.62727,-0.0373 -0.28155,-0.0183 -0.82501,-0.0474 -1.2077,-0.0647 -0.38269,-0.0173 -1.47439,-0.0369 -2.42597,-0.0435 -0.95152,-0.007 -1.81459,-0.005 -1.91781,0.004 -0.18766,0.0157 -0.18767,0.0157 -0.18872,0.16728 -10e-4,0.15153 -10e-4,0.1515 1.0892,0.17867 0.59962,0.0149 1.54536,0.0224 2.10156,0.0164 0.5562,-0.006 1.27727,-0.0201 1.60238,-0.0316 0.3251,-0.0114 0.81889,-0.0329 1.09731,-0.0479 0.27843,-0.0149 0.51345,-0.0199 0.52221,-0.011 0.009,0.009 -0.0239,0.11307 -0.0726,0.23151 -0.0487,0.11844 -0.1688,0.37173 -0.2669,0.56283 -0.0981,0.19113 -0.27227,0.5025 -0.38704,0.69185 -0.20867,0.34435 -0.20866,0.34434 -0.3992,0.32862 -0.19053,-0.0157 -0.19053,-0.0157 -0.19108,0.0643 -5.6e-4,0.08 -5.6e-4,0.08 0.14399,0.069 0.0795,-0.006 0.1444,-0.002 0.1444,0.008 0,0.0104 -0.10904,0.17022 -0.24217,0.35508 -0.13313,0.18483 -0.33825,0.45952 -0.45578,0.61039 -0.11754,0.15087 -0.32585,0.40763 -0.46291,0.57053 -0.24623,0.29265 -0.25026,0.29597 -0.34026,0.27844 -0.0501,-0.01 -0.21715,-0.0354 -0.37119,-0.057 -0.15405,-0.0216 -0.34213,-0.0399 -0.41797,-0.0407 -0.13787,-0.002 -0.13786,-0.001 -0.13896,0.15795 -10e-4,0.15939 -10e-4,0.15934 0.2157,0.1424 0.11924,-0.009 0.32324,-0.0308 0.45337,-0.0478 0.13013,-0.017 0.23926,-0.0288 0.24248,-0.0262 0.003,0.003 -0.12189,0.14398 -0.27798,0.31415 -0.15609,0.17016 -0.31948,0.35114 -0.36313,0.40212 -0.0437,0.051 -0.0616,0.0823 -0.0399,0.0696 0.0217,-0.0127 0.17255,-0.10892 0.33518,-0.21376 0.16262,-0.10483 0.43582,-0.29362 0.607,-0.41951 0.17121,-0.12589 0.4361,-0.33171 0.58864,-0.45737 0.15254,-0.12564 0.41887,-0.35912 0.59182,-0.51882 0.17295,-0.1597 0.4364,-0.42209 0.58546,-0.5831 0.14906,-0.16101 0.37491,-0.41986 0.50184,-0.5752 0.12694,-0.15535 0.35797,-0.47071 0.51344,-0.70078 0.15548,-0.23006 0.36838,-0.58318 0.47312,-0.7847 0.10474,-0.20152 0.24007,-0.48378 0.30071,-0.62721 0.0606,-0.14347 0.15094,-0.39186 0.20067,-0.55191 0.0497,-0.16007 0.11613,-0.40598 0.14759,-0.54648 0.0314,-0.14049 0.0757,-0.40529 0.0984,-0.58843 0.0227,-0.18314 0.0422,-0.46305 0.0433,-0.62204 0.001,-0.15898 -0.009,-0.41918 -0.0225,-0.57817 -0.0135,-0.159 -0.0478,-0.41924 -0.0763,-0.57833 -0.0285,-0.1591 -0.0813,-0.40176 -0.11742,-0.53924 -0.0361,-0.13748 -0.10009,-0.35066 -0.1423,-0.47373 -0.0422,-0.12308 -0.12352,-0.33642 -0.18067,-0.47405 -0.0572,-0.13762 -0.15998,-0.36407 -0.22853,-0.50322 -0.0686,-0.13915 -0.19136,-0.37049 -0.2729,-0.51406 -0.0816,-0.14357 -0.23041,-0.38569 -0.33077,-0.53806 -0.10036,-0.152362 -0.30269,-0.438032 -0.44962,-0.634812 -0.14694,-0.19677 -0.35751,-0.46416 -0.46799,-0.59418 -0.11048,-0.13001 -0.46041,-0.49879 -0.77757,-0.81947 -0.31713,-0.32069 -0.75744,-0.735647 -0.9784,-0.922177 -0.22096,-0.18653 -0.53425,-0.43912 -0.69621,-0.5613 -0.16196,-0.12218 -0.55738,-0.40284 -0.87863,-0.62363 -0.32128,-0.22078 -0.69183,-0.483543 -0.82348,-0.583916 -0.13165,-0.10037 -0.36978,-0.288329 -0.52913,-0.417716 -0.15936,-0.129392 -0.44844,-0.375429 -0.64245,-0.54673 -0.19401,-0.171299 -0.34892,-0.315298 -0.34421,-0.319943 0.005,-0.0046 0.13192,0.0046 0.28265,0.02052 0.15073,0.01592 0.80913,0.03948 1.46306,0.05232 1.189,0.02335 1.18902,0.02336 1.16255,-0.04771 -0.0145,-0.03909 -0.0261,-0.12529 -0.0256,-0.191494 8.4e-4,-0.120376 8.6e-4,-0.120333 -1.13517,-0.110905 -0.62481,0.0052 -1.31936,0.02421 -1.54339,0.04232 -0.40733,0.03293 -0.4073,0.03295 -0.4882,-0.02806 -0.0445,-0.03355 -0.22774,-0.219401 -0.40715,-0.412997 -0.17942,-0.193596 -0.40821,-0.447151 -0.50846,-0.563402 -0.10024,-0.116254 -0.27768,-0.335804 -0.39432,-0.487942 -0.11665,-0.152134 -0.21202,-0.283401 -0.21202,-0.291679 0,-0.0083 0.0385,-0.01088 0.0854,-0.0058 0.0469,0.0051 0.22756,0.01875 0.40141,0.03037 0.31607,0.02113 0.31608,0.02113 0.31574,-0.08069 -3.4e-4,-0.101828 -4e-4,-0.101855 -0.35509,-0.08418 -0.19507,0.0097 -0.39585,0.01868 -0.44618,0.0199 -0.0867,0.0021 -0.0999,-0.01019 -0.25136,-0.23525 -0.0879,-0.130615 -0.24114,-0.381708 -0.34046,-0.557963 -0.0994,-0.176258 -0.24507,-0.466797 -0.3238,-0.645683 -0.0787,-0.17888 -0.15171,-0.353722 -0.16209,-0.388476 -0.019,-0.06319 -0.0189,-0.06316 0.24007,-0.04396 0.14244,0.01056 0.43618,0.03171 0.65276,0.04704 0.21658,0.01533 0.71866,0.04513 1.11577,0.06617 0.45877,0.02431 1.56,0.04399 3.02015,0.05396 1.26393,0.0086 2.4139,0.0067 2.55549,-0.0044 0.25745,-0.02007 0.25747,-0.02012 0.24059,-0.142454 -0.009,-0.06728 -0.0207,-0.126704 -0.0254,-0.132091 -0.005,-0.0054 -0.36645,-0.0238 -0.80398,-0.04088 -0.43753,-0.01708 -1.62878,-0.03033 -2.64721,-0.02944 -1.01844,8.85e-4 -2.11177,0.01201 -2.42966,0.02473 -0.3179,0.01271 -0.88322,0.04062 -1.25618,0.06202 -0.39602,0.02271 -0.68761,0.02908 -0.70088,0.01534 -0.0125,-0.01295 -0.0642,-0.164435 -0.11501,-0.336666 -0.0508,-0.172235 -0.11878,-0.449225 -0.15112,-0.61552 -0.0418,-0.215006 -0.0638,-0.284214 -0.0761,-0.23956 z m 10.68246,0.02298 c -0.0166,0.02451 -0.0423,0.115822 -0.0937,0.298398 -0.0565,0.200829 -0.14853,0.494859 -0.20442,0.653377 -0.1016,0.288212 -0.10161,0.288202 -0.33795,0.281881 -0.12998,-0.0035 -0.30875,-0.01374 -0.39724,-0.02283 -0.15962,-0.01638 -0.161,-0.01594 -0.17534,0.05602 -0.008,0.0399 -0.0123,0.07479 -0.01,0.07751 0.003,0.0027 0.17379,-0.0062 0.38042,-0.0197 0.20664,-0.01354 0.38184,-0.01844 0.3893,-0.01087 0.007,0.0076 -0.0368,0.129609 -0.0983,0.271159 -0.0615,0.141554 -0.19384,0.416373 -0.29409,0.610698 -0.10025,0.194327 -0.2676,0.494545 -0.37186,0.667176 -0.10426,0.172628 -0.1922,0.316521 -0.19544,0.319738 -0.003,0.0032 -0.14106,-0.0062 -0.30625,-0.02093 -0.16518,-0.01474 -0.52481,-0.04102 -0.79916,-0.05838 -0.27435,-0.01736 -1.00702,-0.04568 -1.62803,-0.06294 -0.62105,-0.01726 -1.5547,-0.02732 -2.07478,-0.02231 -0.9456,0.0091 -0.94561,0.0041 -0.9467,0.167025 -10e-4,0.162969 -10e-4,0.168014 1.02302,0.192828 0.5633,0.01365 1.50291,0.01625 2.08802,0.0058 0.58513,-0.01045 1.29444,-0.03051 1.57622,-0.04458 0.28179,-0.01406 0.62108,-0.03316 0.75398,-0.04247 0.24163,-0.01693 0.24164,-0.01691 0.18482,0.07541 -0.0313,0.05077 -0.15209,0.227567 -0.26849,0.392888 -0.11641,0.165323 -0.28331,0.394677 -0.37083,0.509642 -0.0875,0.11496 -0.27226,0.352922 -0.41048,0.528775 -0.25132,0.319738 -0.25131,0.319719 -0.39792,0.304195 -0.0806,-0.0085 -0.17315,-0.0211 -0.2056,-0.02791 -0.0483,-0.01014 -0.0591,-7.64e-4 -0.0595,0.05166 -2.5e-4,0.03521 -0.008,0.08339 -0.0173,0.107109 -0.015,0.03836 10e-4,0.04119 0.1482,0.0256 0.12774,-0.01356 0.16051,-0.01026 0.14486,0.01467 -0.0111,0.01772 -0.32379,0.392616 -0.69483,0.833022 -0.37103,0.44041 -0.7,0.835505 -0.73104,0.878005 -0.0552,0.0756 -0.0513,0.0746 0.1799,-0.0472 0.12998,-0.0685 0.40257,-0.23345 0.60572,-0.366572 0.20315,-0.13312 0.50008,-0.344844 0.65985,-0.470502 0.15976,-0.125653 0.49957,-0.434691 0.7551,-0.686721 0.25552,-0.252029 0.56896,-0.587538 0.69657,-0.745559 0.12761,-0.158025 0.33943,-0.446135 0.4707,-0.640245 0.13128,-0.194116 0.34527,-0.564973 0.47553,-0.824096 0.1393,-0.277086 0.2859,-0.616815 0.35596,-0.824866 0.0655,-0.194562 0.14399,-0.471785 0.17441,-0.616032 0.0304,-0.144245 0.0702,-0.392214 0.0883,-0.550988 0.0191,-0.166657 0.0275,-0.427474 0.0199,-0.617059 -0.007,-0.180617 -0.0266,-0.404493 -0.043,-0.497484 -0.0149,-0.08453 -0.0223,-0.126848 -0.0389,-0.102339 z m -6.29283,8.394746 c -0.0217,0.0122 -0.22358,0.14176 -0.44849,0.28799 -0.22488,0.14623 -0.54737,0.369747 -0.71647,0.496707 -0.16914,0.12697 -0.45899,0.35897 -0.64415,0.51554 -0.18516,0.15657 -0.49859,0.44457 -0.69652,0.63999 -0.19791,0.19542 -0.47759,0.49176 -0.62142,0.65856 -0.14382,0.166812 -0.36719,0.446332 -0.49635,0.621112 -0.12918,0.17478 -0.30283,0.42574 -0.38591,0.55771 -0.0831,0.13196 -0.22665,0.38206 -0.31902,0.55576 -0.0924,0.1737 -0.22278,0.4443 -0.28984,0.60131 -0.0671,0.15701 -0.16988,0.43788 -0.22848,0.62414 -0.0586,0.18625 -0.13921,0.49928 -0.17918,0.69559 -0.067,0.32932 -0.0731,0.4098 -0.0788,1.0398 -0.005,0.54582 0.003,0.74084 0.0401,0.97204 0.0255,0.15908 0.0846,0.44316 0.13138,0.63127 0.0468,0.18812 0.13087,0.47242 0.18682,0.63168 0.056,0.15929 0.1615,0.42523 0.23459,0.591 0.0731,0.16577 0.20577,0.43814 0.29486,0.60526 0.0891,0.16712 0.27748,0.48237 0.41869,0.70047 0.1412,0.21813 0.36926,0.54511 0.50676,0.72663 0.13751,0.18151 0.33165,0.42514 0.43142,0.54139 1.44361,2.00993 3.46946,2.73709 5.67818,3.46582 l -1.45336,-1.42192 c -0.17791,-0.13279 -0.54144,-0.53624 -0.72274,-0.6839 -0.18131,-0.14765 -0.38252,-0.31804 -0.44711,-0.37867 -0.11743,-0.11026 -0.11741,-0.11029 0.0269,-0.0937 0.14434,0.0166 0.1443,0.0166 0.13675,-0.17144 -0.008,-0.18805 -0.008,-0.18803 -0.33317,-0.17149 -0.32564,0.0165 -0.32566,0.0165 -0.88201,-0.54806 -0.30597,-0.31052 -0.66495,-0.69353 -0.79758,-0.85113 -0.13266,-0.15761 -0.23609,-0.29159 -0.22986,-0.29773 0.006,-0.006 0.18131,0.003 0.38909,0.0201 0.20774,0.0172 1.06504,0.0426 1.90499,0.0564 0.83996,0.0139 1.64995,0.0177 1.79998,0.009 0.27268,-0.0167 0.27264,-0.0167 0.2729,-0.16933 2.6e-4,-0.15264 2.6e-4,-0.15267 -0.66938,-0.17698 -0.36827,-0.0134 -1.10698,-0.0197 -1.64147,-0.0142 -0.53453,0.006 -1.17878,0.0203 -1.43167,0.0327 -0.25288,0.0124 -0.53665,0.0286 -0.6306,0.0361 -0.17082,0.0136 -0.17086,0.0136 -0.37032,-0.25798 -0.1097,-0.14938 -0.28154,-0.39736 -0.38185,-0.55109 -0.10035,-0.15372 -0.26494,-0.42675 -0.36576,-0.60665 -0.10082,-0.1799 -0.18313,-0.3404 -0.18313,-0.35672 0,-0.0211 0.0837,-0.0251 0.28896,-0.014 0.28881,0.0157 0.28882,0.0156 0.28947,-0.081 6.6e-4,-0.0966 6.9e-4,-0.0966 -0.33343,-0.0914 -0.33409,0.005 -0.3341,0.005 -0.42162,-0.20176 -0.0481,-0.11383 -0.13152,-0.33956 -0.18528,-0.50158 -0.0538,-0.16203 -0.12635,-0.43013 -0.16128,-0.59577 -0.0349,-0.16565 -0.0706,-0.35273 -0.0792,-0.41572 -0.0157,-0.11453 -0.0157,-0.11457 0.18852,-0.0969 0.1123,0.01 0.42277,0.0306 0.6899,0.0464 0.26714,0.0158 0.94064,0.0454 1.49666,0.0659 0.65648,0.0242 1.71079,0.0362 3.00712,0.0343 1.09789,-0.002 2.06414,-0.01 2.14726,-0.0182 0.15112,-0.0153 0.15113,-0.0153 0.152,-0.13953 8.6e-4,-0.12425 8.6e-4,-0.12425 -0.26824,-0.14287 -0.148,-0.0102 -1.03728,-0.0314 -1.97614,-0.047 -1.06364,-0.0177 -2.12282,-0.02 -2.81028,-0.006 -0.60678,0.0123 -1.34565,0.0334 -1.64188,0.0467 -0.29623,0.0134 -0.64498,0.0256 -0.77501,0.0272 -0.2364,0.003 -0.2364,0.003 -0.23079,-0.53549 0.005,-0.43603 0.0168,-0.59577 0.0646,-0.84005 0.0325,-0.16591 0.0692,-0.33702 0.0817,-0.38027 0.0188,-0.0652 0.0358,-0.0781 0.0993,-0.0757 0.0421,0.002 0.21299,0.0122 0.37975,0.0236 0.30322,0.0207 0.30318,0.0206 0.30384,-0.0745 6.6e-4,-0.0951 7e-4,-0.0951 -0.22397,-0.0808 -0.12356,0.008 -0.28793,0.0204 -0.36523,0.0279 -0.14056,0.0136 -0.14058,0.0136 -0.12091,-0.0738 0.0108,-0.0481 0.0614,-0.20534 0.11249,-0.34944 0.0511,-0.14411 0.14121,-0.374 0.20037,-0.51082 0.0592,-0.13683 0.18482,-0.40049 0.27927,-0.58592 0.17172,-0.33715 0.17173,-0.33717 0.38637,-0.31892 0.11805,0.01 0.38004,0.0307 0.58217,0.046 0.20214,0.0152 0.75153,0.0436 1.22089,0.0632 0.46935,0.0195 1.38724,0.0351 2.03969,0.0346 0.65247,-4.9e-4 1.1909,-0.007 1.19647,-0.0139 0.006,-0.007 0.006,-0.08 9.7e-4,-0.16194 -0.009,-0.14892 -0.009,-0.14892 -0.23653,-0.16944 -0.12506,-0.0113 -0.90701,-0.0183 -1.73766,-0.0155 -0.8306,0.003 -1.73492,0.016 -2.00948,0.0294 -0.27456,0.0135 -0.65143,0.0357 -0.83748,0.0494 -0.18603,0.0137 -0.34327,0.0199 -0.34939,0.0136 -0.006,-0.006 0.0548,-0.11832 0.13532,-0.24911 0.0806,-0.13079 0.2427,-0.37937 0.36037,-0.552422 0.11767,-0.17304 0.33755,-0.47657 0.48861,-0.67451 0.27464,-0.35989 0.27463,-0.35991 0.54652,-0.32631 0.14954,0.0185 0.31507,0.0348 0.36786,0.0363 0.096,0.003 0.096,0.003 0.0825,-0.10906 -0.007,-0.0614 -0.0175,-0.11641 -0.0224,-0.12219 -0.005,-0.006 -0.13603,10e-4 -0.29137,0.0161 -0.15534,0.0146 -0.28565,0.0234 -0.28958,0.0194 -0.004,-0.004 0.0876,-0.11916 0.20335,-0.25592 0.11576,-0.13678 0.35934,-0.41183 0.54129,-0.61127 0.18194,-0.19943 0.40586,-0.444267 0.49758,-0.544057 0.0917,-0.0998 0.14897,-0.17148 0.12722,-0.15933 z" />
    <ellipse
       style="fill:#ffffff;fill-opacity:0.0505494;fill-rule:evenodd;stroke:#000000;stroke-width:0.1;stroke-dasharray:none"
       id="path33-16"
       cx="58.482418"
       cy="92.040657"
       rx="0.37474406"
       ry="0.38657808" />
    <ellipse
       style="fill:#0a1d9f;fill-opacity:0.54902;fill-rule:evenodd;stroke:#000000;stroke-width:0.1;stroke-dasharray:none"
       id="path33-16-6"
       cx="64.458366"
       cy="90.108765"
       rx="0.37474406"
       ry="0.38657808" />
    <ellipse
       style="fill:url(#linearGradient23);fill-rule:evenodd;stroke:#000000;stroke-width:0.1;stroke-dasharray:none"
       id="path33-35"
       cx="62.437939"
       cy="94.000992"
       rx="0.37474406"
       ry="0.38657808" />
    <ellipse
       style="fill:url(#linearGradient24);fill-rule:evenodd;stroke:#000000;stroke-width:0.1;stroke-dasharray:none"
       id="path33"
       cx="59.903316"
       cy="98.881119"
       rx="0.37474406"
       ry="0.38657808" />
  </g>
</svg>
