<?xml version="1.0" encoding="UTF-8" standalone="no"?>
<!-- Created with Inkscape (http://www.inkscape.org/) -->

<svg
   version="1.1"
   id="svg1"
   width="475.76349"
   height="259.7084"
   viewBox="0 0 475.76349 259.7084"
   sodipodi:docname="drexml_logo.svg"
   inkscape:version="1.3.2 (091e20e, 2023-11-25, custom)"
   xmlns:inkscape="http://www.inkscape.org/namespaces/inkscape"
   xmlns:sodipodi="http://sodipodi.sourceforge.net/DTD/sodipodi-0.dtd"
   xmlns:xlink="http://www.w3.org/1999/xlink"
   xmlns="http://www.w3.org/2000/svg"
   xmlns:svg="http://www.w3.org/2000/svg">
  <defs
     id="defs1">
    <linearGradient
       id="swatch104"
       inkscape:swatch="solid">
      <stop
         style="stop-color:#ffffff;stop-opacity:1;"
         offset="0"
         id="stop104" />
    </linearGradient>
    <linearGradient
       id="swatch70"
       inkscape:swatch="solid">
      <stop
         style="stop-color:#000000;stop-opacity:1;"
         offset="0"
         id="stop70" />
    </linearGradient>
    <linearGradient
       id="swatch69"
       inkscape:swatch="solid">
      <stop
         style="stop-color:#000000;stop-opacity:1;"
         offset="0"
         id="stop69" />
    </linearGradient>
    <linearGradient
       id="linearGradient62"
       inkscape:collect="always">
      <stop
         style="stop-color:#da7162;stop-opacity:1;"
         offset="0.2671614"
         id="stop63" />
      <stop
         style="stop-color:#2b8cf2;stop-opacity:1;"
         offset="0.6122449"
         id="stop64" />
    </linearGradient>
    <linearGradient
       inkscape:collect="always"
       xlink:href="#linearGradient62"
       id="linearGradient64"
       x1="243.78499"
       y1="324.4111"
       x2="246.49908"
       y2="324.4111"
       gradientUnits="userSpaceOnUse"
       gradientTransform="matrix(0.97088482,0,0,0.97088482,7.1769653,9.4119337)" />
    <linearGradient
       inkscape:collect="always"
       xlink:href="#linearGradient31"
       id="linearGradient30"
       x1="60.667759"
       y1="110.66096"
       x2="61.428684"
       y2="110.66096"
       gradientUnits="userSpaceOnUse"
       gradientTransform="matrix(0.05584759,0,0,0.05584759,243.33031,318.37004)" />
    <linearGradient
       id="linearGradient31"
       inkscape:collect="always">
      <stop
         style="stop-color:#da7162;stop-opacity:1;"
         offset="0.42857143"
         id="stop30" />
      <stop
         style="stop-color:#2b8cf2;stop-opacity:1;"
         offset="1"
         id="stop31" />
    </linearGradient>
    <linearGradient
       inkscape:collect="always"
       xlink:href="#linearGradient18"
       id="linearGradient19"
       x1="54.685699"
       y1="101.11418"
       x2="67.049881"
       y2="101.11418"
       gradientUnits="userSpaceOnUse"
       gradientTransform="matrix(0.05584759,0,0,0.05584759,243.33031,318.37004)" />
    <linearGradient
       id="linearGradient18"
       inkscape:collect="always">
      <stop
         style="stop-color:#da7162;stop-opacity:1;"
         offset="0.38961038"
         id="stop18" />
      <stop
         style="stop-color:#2b8cf2;stop-opacity:1;"
         offset="1"
         id="stop19" />
    </linearGradient>
    <linearGradient
       inkscape:collect="always"
       xlink:href="#linearGradient40"
       id="linearGradient23"
       x1="62.057476"
       y1="94.000992"
       x2="62.818401"
       y2="94.000992"
       gradientUnits="userSpaceOnUse"
       gradientTransform="matrix(0.05584759,0,0,0.05584759,243.33031,318.37004)" />
    <linearGradient
       id="linearGradient40"
       inkscape:collect="always">
      <stop
         style="stop-color:#da7162;stop-opacity:1;"
         offset="0"
         id="stop39" />
      <stop
         style="stop-color:#2b8cf2;stop-opacity:1;"
         offset="1"
         id="stop40" />
    </linearGradient>
    <linearGradient
       inkscape:collect="always"
       xlink:href="#linearGradient42"
       id="linearGradient24"
       x1="59.522854"
       y1="98.881119"
       x2="60.283779"
       y2="98.881119"
       gradientUnits="userSpaceOnUse"
       gradientTransform="matrix(0.05584759,0,0,0.05584759,243.33031,318.37004)" />
    <linearGradient
       id="linearGradient42"
       inkscape:collect="always">
      <stop
         style="stop-color:#da7162;stop-opacity:1;"
         offset="0.4359926"
         id="stop41" />
      <stop
         style="stop-color:#2b8cf2;stop-opacity:1;"
         offset="0.98515773"
         id="stop42" />
    </linearGradient>
  </defs>
  <sodipodi:namedview
     id="namedview1"
     pagecolor="#ffffff"
     bordercolor="#000000"
     borderopacity="0.25"
     inkscape:showpageshadow="2"
     inkscape:pageopacity="0.0"
     inkscape:pagecheckerboard="0"
     inkscape:deskcolor="#d1d1d1"
     inkscape:zoom="1.4142136"
     inkscape:cx="198.697"
     inkscape:cy="224.5064"
     inkscape:window-width="1920"
     inkscape:window-height="1094"
     inkscape:window-x="-11"
     inkscape:window-y="-11"
     inkscape:window-maximized="1"
     inkscape:current-layer="g1" />
  <g
     inkscape:groupmode="layer"
     inkscape:label="Image"
     id="g1"
     transform="matrix(116.59889,0,0,116.59889,-28433.638,-37692.492)">
    <path
       id="path1"
       style="display:inline;fill:url(#linearGradient64);stroke:#000000;stroke-width:0.00728995;stroke-dasharray:none;stroke-opacity:1"
       d="m 244.58639,323.26998 -0.007,0.003 -0.10689,0.0616 -0.10694,0.0616 -0.006,0.005 -0.006,0.005 v 0.13312 0.13314 l 0.005,0.004 0.005,0.004 0.10171,0.0587 0.1017,0.0588 9.9e-4,0.0603 6.2e-4,0.0604 -0.009,0.004 -0.009,0.004 -0.01,0.009 -0.01,0.009 -0.006,0.013 -0.006,0.013 -3e-5,0.0169 -8e-5,0.0169 -0.1162,0.067 -0.11629,0.067 h -0.20587 -0.2059 l -0.006,0.005 -0.006,0.005 v 0.01 0.01 l 0.006,0.005 0.006,0.005 h 0.19996 0.19994 v 0.16494 0.16495 l 0.004,0.004 0.004,0.004 0.14319,0.0826 0.1432,0.0826 -6.4e-4,0.15084 -6.1e-4,0.1508 -0.0956,0.0551 -0.0956,0.0552 -0.005,0.005 -0.005,0.005 v 0.12853 0.12853 l 0.006,0.005 0.006,0.005 0.10275,0.0595 0.10275,0.0595 0.009,1.5e-4 0.009,3.1e-4 0.10659,-0.0618 0.10655,-0.0617 0.003,-0.007 0.003,-0.007 v -0.12223 -0.12222 l -0.003,-0.006 -0.003,-0.006 -0.10273,-0.0592 -0.1027,-0.0593 v -0.14892 -0.1489 l 0.12349,-0.0714 0.12353,-0.0713 0.0132,-0.008 0.0132,-0.008 0.17535,0.0985 0.17538,0.0985 9.7e-4,0.15095 9.7e-4,0.151 0.005,0.005 0.004,0.004 0.10204,0.0589 0.10205,0.0589 3e-4,0.0181 3.2e-4,0.0181 0.005,0.009 0.005,0.009 0.006,0.008 0.006,0.008 0.0132,0.007 0.0132,0.007 0.0128,9.7e-4 0.0128,9.7e-4 0.0126,-0.003 0.0126,-0.003 0.0118,-0.009 0.0117,-0.009 0.008,-0.014 0.008,-0.0141 3.1e-4,-0.0181 3.1e-4,-0.0182 0.1025,-0.0592 0.10257,-0.0593 0.005,-0.006 0.004,-0.006 v -0.14529 -0.14532 h 0.23379 0.23384 l 0.006,0.0117 0.006,0.0118 0.0113,0.01 0.0113,0.01 0.0102,0.003 0.0103,0.003 0.0152,-8e-5 0.0153,-3e-5 0.0117,-0.006 0.0118,-0.005 0.008,-0.007 0.008,-0.007 0.007,-0.013 0.007,-0.013 1.5e-4,-0.0171 1.7e-4,-0.0171 -0.007,-0.0148 -0.007,-0.0147 -0.01,-0.008 -0.01,-0.008 -0.0128,-0.005 -0.0128,-0.004 -0.016,9.7e-4 -0.016,9.8e-4 -0.008,0.005 -0.008,0.004 -0.008,0.007 -0.008,0.007 -0.007,0.0126 -0.007,0.0127 h -0.24131 -0.24128 l -0.13059,-0.0754 -0.13059,-0.0754 h -0.008 -0.008 l -0.12684,0.0732 -0.12682,0.0732 -0.003,-7e-5 -0.003,-3e-5 -0.17482,-0.0983 -0.1749,-0.0983 v -0.12966 -0.12968 h 0.006 l 0.006,-3e-5 0.0131,-0.006 0.0131,-0.006 0.0105,-0.012 0.0106,-0.0119 0.003,-0.0103 0.003,-0.0102 v -0.0128 -0.0128 l -0.005,-0.012 -0.004,-0.0115 c -9.7e-4,-9.7e-4 -0.003,-9.7e-4 -0.004,-0.003 -0.008,-0.007 -0.0153,-0.0137 -0.0217,-0.0215 l -0.003,-0.002 -0.009,-0.005 -0.0163,-9.7e-4 -0.0163,-9.7e-4 -0.0117,0.003 -0.0116,0.003 -0.0106,0.009 -0.0106,0.009 -0.0344,-0.0198 -0.0344,-0.0198 -0.0598,-0.0346 -0.0598,-0.0345 6.2e-4,-0.0112 9.7e-4,-0.0112 -0.003,-0.0121 -0.003,-0.0121 -0.009,-0.0121 -0.009,-0.012 -0.0131,-0.006 -0.013,-0.006 -5e-5,-0.0611 -3e-5,-0.0611 0.10194,-0.0584 0.10193,-0.0584 0.005,-0.005 0.005,-0.005 v -0.13103 -0.13102 l -0.005,-0.005 -0.005,-0.005 -0.10886,-0.0626 -0.10886,-0.0626 z m 0.001,0.0457 0.0965,0.0556 0.0965,0.0556 -4e-5,0.11208 -5e-5,0.11206 -0.0912,0.0526 -0.0913,0.0526 -0.005,-0.003 -0.005,-0.003 -0.007,0.003 -0.007,0.003 -0.0909,-0.0525 -0.0909,-0.0525 -6.3e-4,-0.11164 -6.2e-4,-0.11165 0.0955,-0.055 0.0955,-0.055 0.003,-9.7e-4 z m -0.0503,0.72109 0.004,0.003 0.004,0.003 0.0118,0.006 0.0118,0.006 0.0181,8e-5 0.0183,3e-5 0.0152,-0.009 0.0152,-0.009 9.8e-4,6.3e-4 9.7e-4,6.2e-4 0.0943,0.0543 0.0943,0.0543 v 0.0118 l 2e-5,0.0118 0.006,0.013 0.006,0.013 0.0109,0.01 0.0108,0.01 -6.2e-4,0.13406 -6.2e-4,0.13407 -0.1261,0.0728 -0.12615,0.0728 -0.0106,0.006 -0.0106,0.006 -0.13826,-0.0798 -0.13826,-0.0797 v -0.15777 -0.15779 l 0.11362,-0.0656 z m 0.2618,0.14529 -0.008,9.4e-4 -0.005,0.005 -0.005,0.005 v 0.14042 0.14041 l 0.005,0.005 0.005,0.005 h 0.008 0.008 l 0.006,-0.005 0.006,-0.005 v -0.14086 -0.14091 l -0.006,-0.005 -0.006,-0.005 z m -0.88174,0.04 -0.005,0.005 -0.005,0.005 v 0.009 0.009 l 0.007,0.006 0.007,0.006 0.15327,-6.2e-4 0.15321,-6.2e-4 0.005,-0.006 0.005,-0.006 v -0.008 -0.008 l -0.005,-0.005 -0.005,-0.005 h -0.15475 z m 1.25038,0.0414 v 9e-5 c 4e-5,1.4e-4 0,2.8e-4 6e-5,2.8e-4 -4e-5,-3e-4 0,-5e-5 -5e-5,-2.8e-4 -2e-5,-3e-5 1e-5,-9e-5 -1e-5,-9e-5 z m 0.34893,0.312 0.12223,0.0706 0.12223,0.0706 -6.2e-4,0.14073 -6.2e-4,0.1407 -0.0974,0.0562 -0.0974,0.0562 -0.0106,-0.008 -0.0106,-0.008 -0.0137,-0.003 -0.0137,-0.003 -0.0137,0.003 -0.0137,0.003 -0.0106,0.008 -0.0106,0.008 -0.0974,-0.0563 -0.0974,-0.0563 -6.2e-4,-0.14064 -6.2e-4,-0.14069 0.12223,-0.0706 z m -0.92508,0.43512 0.0471,0.0273 0.0471,0.0273 0.0475,0.0274 0.0475,0.0274 -6.2e-4,0.1082 -6.3e-4,0.10812 -0.0936,0.0541 -0.0936,0.0541 -9.7e-4,-1.7e-4 -0.002,-1.5e-4 -0.0929,-0.0539 -0.093,-0.0538 6.2e-4,-0.10898 6.2e-4,-0.10893 0.0933,-0.0539 z m 0.009,0.033 -0.004,2e-4 -0.0841,0.0482 -0.0841,0.0482 -0.005,0.005 -0.005,0.005 v 0.009 0.009 l 0.005,0.005 0.005,0.005 h 0.008 0.008 l 0.0826,-0.0473 0.0826,-0.0473 0.005,-0.004 0.005,-0.004 v -0.01 -0.01 l -0.007,-0.006 -0.007,-0.006 z m -0.28006,0.0313 -0.006,3e-5 -0.006,4e-5 -0.007,0.006 -0.007,0.006 v 0.13987 0.14007 l 0.007,0.006 0.007,0.006 h 0.006 0.006 l 0.007,-0.007 0.007,-0.007 v -0.1381 -0.13802 l -0.007,-0.007 z" />
    <path
       id="text52"
       style="font-size:0.800667px;font-family:'Bauhaus 93';-inkscape-font-specification:'Bauhaus 93, @wdth=87.0';font-variation-settings:'wdth' 87;fill:#da7162;fill-opacity:1;stroke:#000000;stroke-width:0.00728995;stroke-dasharray:none"
       d="m 245.09602,323.75403 v 0.0293 h 0.059 c 0.0102,0 0.0181,0.002 0.0239,0.007 0.006,0.005 0.009,0.0111 0.009,0.0192 v 0.46562 c 0,0.009 -0.003,0.0163 -0.008,0.0207 -0.005,0.004 -0.0147,0.007 -0.0285,0.007 h -0.0547 v 0.0293 h 0.26741 c 0.0456,0 0.0821,-0.004 0.10946,-0.0133 0.0365,-0.012 0.0674,-0.03 0.0927,-0.0539 0.0255,-0.024 0.0444,-0.052 0.0567,-0.0841 0.0162,-0.0417 0.0242,-0.0886 0.0242,-0.14074 0,-0.0631 -0.0136,-0.11767 -0.0407,-0.1638 -0.0268,-0.0461 -0.0596,-0.0791 -0.0981,-0.0989 -0.031,-0.0156 -0.0687,-0.0235 -0.11299,-0.0235 z m 0.20955,0.0293 h 0.0657 c 0.0579,0 0.10112,0.0189 0.12979,0.0567 0.0336,0.0448 0.0504,0.11546 0.0504,0.2119 0,0.0652 -0.008,0.11624 -0.0231,0.15325 -0.0112,0.0274 -0.0276,0.0486 -0.0493,0.0637 -0.0331,0.0227 -0.0717,0.034 -0.11571,0.034 h -0.0493 c -0.0156,0 -0.0267,-0.002 -0.0332,-0.007 -0.007,-0.005 -0.01,-0.0121 -0.01,-0.0215 v -0.46132 c 0,-0.01 0.003,-0.0173 0.008,-0.0223 0.006,-0.005 0.0145,-0.007 0.0262,-0.007 z m 0.94649,0.17162 c -0.0482,0 -0.0889,0.0184 -0.12198,0.0551 -0.0328,0.0365 -0.0493,0.0845 -0.0493,0.14387 0,0.0553 0.0167,0.10061 0.05,0.13605 0.0336,0.0354 0.0749,0.0532 0.12393,0.0532 0.0719,0 0.12693,-0.037 0.16498,-0.11102 l -0.0254,-0.011 c -0.031,0.0581 -0.0721,0.0872 -0.12315,0.0872 -0.0347,0 -0.0632,-0.0129 -0.0856,-0.0387 -0.0196,-0.0229 -0.03,-0.0623 -0.0313,-0.11806 h 0.26233 c -5.2e-4,-0.0365 -0.005,-0.0667 -0.0145,-0.0907 -0.013,-0.0341 -0.0324,-0.0603 -0.0582,-0.0786 -0.0258,-0.0182 -0.0564,-0.0274 -0.0919,-0.0274 z m -0.40854,0.004 -0.13176,0.007 v 0.0278 h 0.0321 c 0.0141,0 0.0249,0.004 0.0324,0.0125 0.008,0.008 0.0113,0.021 0.0113,0.0387 v 0.23341 c 0,0.007 -0.003,0.0126 -0.009,0.0176 -0.006,0.005 -0.0155,0.007 -0.0278,0.007 h -0.0364 v 0.0293 h 0.22754 v -0.0293 h -0.0465 c -0.0151,0 -0.0258,-0.002 -0.032,-0.007 -0.006,-0.005 -0.009,-0.0115 -0.009,-0.0203 v -0.0786 c 0,-0.0284 0.008,-0.0663 0.0235,-0.11377 0.0102,-0.0305 0.0246,-0.0545 0.0434,-0.0719 0.0136,-0.0125 0.0257,-0.0188 0.0364,-0.0188 0.005,0 0.007,0.002 0.007,0.006 0,0.001 -0.002,0.005 -0.006,0.0121 -0.004,0.008 -0.006,0.0156 -0.006,0.0242 0,0.0133 0.004,0.0239 0.0106,0.0317 0.007,0.008 0.0168,0.0117 0.0285,0.0117 0.012,0 0.0219,-0.005 0.0297,-0.0137 0.008,-0.009 0.0121,-0.0219 0.0121,-0.0383 0,-0.0203 -0.006,-0.0365 -0.018,-0.0485 -0.0117,-0.0122 -0.0275,-0.0184 -0.0473,-0.0184 -0.0292,0 -0.0537,0.0125 -0.0735,0.0375 -0.0198,0.025 -0.0367,0.0619 -0.0508,0.11064 z m 0.40933,0.0192 c 0.0242,0 0.0452,0.01 0.0629,0.0301 0.018,0.0201 0.027,0.0444 0.027,0.0731 0,0.0154 -0.003,0.0263 -0.008,0.0328 -0.005,0.006 -0.0125,0.009 -0.0219,0.009 h -0.15873 c 7.8e-4,-0.0485 0.0106,-0.0848 0.0293,-0.10908 0.019,-0.0242 0.0421,-0.0364 0.0692,-0.0364 z" />
    <text
       xml:space="preserve"
       style="font-style:normal;font-variant:normal;font-weight:normal;font-stretch:normal;font-size:0.800667px;font-family:'Century Schoolbook';-inkscape-font-specification:'Century Schoolbook, Normal';font-variant-ligatures:normal;font-variant-caps:normal;font-variant-numeric:normal;font-variant-east-asian:normal;opacity:1;fill:#2b8cf2;fill-opacity:1;stroke:#000000;stroke-width:0.00728995;stroke-dasharray:none"
       x="246.98994"
       y="324.34103"
       id="text53"><tspan
         sodipodi:role="line"
         id="tspan53"
         style="fill:#2b8cf2;fill-opacity:1;stroke-width:0.00728995;stroke-dasharray:none"
         x="246.98994"
         y="324.34103">ml</tspan></text>
    <ellipse
       style="fill:#2b8cf2;fill-opacity:1;fill-rule:evenodd;stroke:#000000;stroke-width:0.00558476;stroke-dasharray:none"
       id="path33-6"
       cx="246.93752"
       cy="324.22418"
       rx="0.020928552"
       ry="0.021589454" />
    <ellipse
       style="fill:#2b8cf2;fill-opacity:1;fill-rule:evenodd;stroke:#000000;stroke-width:0.00558476;stroke-dasharray:none"
       id="path33-62"
       cx="246.85513"
       cy="324.44092"
       rx="0.020928552"
       ry="0.021589454" />
    <ellipse
       style="fill:#da7162;fill-opacity:1;fill-rule:evenodd;stroke:#000000;stroke-width:0.00558476;stroke-dasharray:none"
       id="path33-3"
       cx="246.57178"
       cy="324.32837"
       rx="0.020928552"
       ry="0.021589454" />
    <ellipse
       style="display:inline;fill:url(#linearGradient30);fill-rule:evenodd;stroke:#000000;stroke-width:0.00558476;stroke-dasharray:none"
       id="path33-0"
       cx="246.73972"
       cy="324.55023"
       rx="0.020928552"
       ry="0.021589454" />
    <ellipse
       style="fill:#da7162;fill-opacity:1;fill-rule:evenodd;stroke:#000000;stroke-width:0.00558476;stroke-dasharray:none"
       id="path33-1"
       cx="246.55696"
       cy="324.11188"
       rx="0.020928552"
       ry="0.021589454" />
    <ellipse
       style="fill:#2b8cf2;fill-opacity:1;fill-rule:evenodd;stroke:#000000;stroke-width:0.00558476;stroke-dasharray:none"
       id="path33-4"
       cx="246.85509"
       cy="324.0043"
       rx="0.020928552"
       ry="0.021589454" />
    <path
       id="path25"
       style="fill:url(#linearGradient19);stroke:#000000;stroke-width:0.00703678;stroke-dasharray:none;stroke-opacity:1"
       d="m 246.43628,323.33136 c -4.1e-4,0.002 -8.4e-4,0.0147 -0.001,0.0285 -1e-4,0.0138 8.4e-4,0.0319 0.002,0.0403 0.001,0.009 0.003,0.022 0.005,0.0301 0.002,0.008 0.006,0.0243 0.01,0.036 0.003,0.0117 0.0109,0.0307 0.0158,0.0419 0.005,0.0113 0.0139,0.0296 0.0198,0.0405 0.007,0.0109 0.0164,0.0282 0.023,0.0383 0.006,0.01 0.0169,0.025 0.0229,0.0331 0.005,0.008 0.0175,0.0231 0.0259,0.0331 0.009,0.01 0.0276,0.0313 0.0429,0.0471 0.0152,0.0157 0.036,0.036 0.0459,0.0448 0.01,0.009 0.0258,0.0224 0.035,0.0299 0.01,0.008 0.0213,0.0169 0.027,0.0209 0.005,0.004 0.0187,0.0142 0.0291,0.0228 0.0108,0.009 0.0259,0.0215 0.0342,0.0288 0.009,0.008 0.0212,0.0193 0.0285,0.0264 0.0131,0.013 0.0131,0.013 8.2e-4,0.0121 -0.006,-4.1e-4 -0.0305,-0.002 -0.0527,-0.002 -0.0403,-10e-4 -0.0403,-10e-4 -0.0405,0.01 -1.8e-4,0.0115 -1.8e-4,0.0115 0.0395,0.0108 0.0219,-3.9e-4 0.049,-0.001 0.0603,-0.002 0.0207,-10e-4 0.0207,-10e-4 0.0338,0.0123 0.008,0.008 0.0184,0.0198 0.0248,0.0272 0.007,0.008 0.0165,0.0196 0.0224,0.0273 0.007,0.008 0.0137,0.0177 0.017,0.0224 0.007,0.009 0.007,0.009 -0.006,0.008 -0.009,-8.4e-4 -0.0126,-4.2e-4 -0.0126,3.9e-4 0,8.2e-4 -4.1e-4,0.003 -8.3e-4,0.007 -8.3e-4,0.004 -8.3e-4,0.004 0.0151,0.003 0.016,-8.4e-4 0.016,-8.4e-4 0.0198,0.004 0.002,0.003 0.009,0.0132 0.0146,0.0234 0.006,0.01 0.0139,0.0244 0.0174,0.0319 0.003,0.008 0.01,0.0199 0.0125,0.0278 0.005,0.0144 0.005,0.0144 -0.0121,0.0133 -0.01,-4.2e-4 -0.0309,-0.002 -0.0466,-0.003 -0.0157,-8.4e-4 -0.0629,-0.002 -0.10484,-0.003 -0.0433,-0.001 -0.1055,-0.002 -0.14374,-0.001 -0.0372,4.2e-4 -0.0677,8.4e-4 -0.0678,8.4e-4 -2.2e-4,6e-5 -3.9e-4,0.003 -4.1e-4,0.008 -5e-5,0.008 -5e-5,0.008 0.0113,0.009 0.006,4.1e-4 0.041,0.002 0.0773,0.002 0.0363,8.4e-4 0.0974,8.4e-4 0.13568,2.3e-4 0.0383,-4.2e-4 0.0819,-0.002 0.0968,-0.002 0.0149,-8.2e-4 0.0351,-0.002 0.0448,-0.002 0.0178,-8.4e-4 0.0178,-8.4e-4 0.0222,0.0152 0.002,0.009 0.005,0.0212 0.007,0.0277 0.001,0.007 0.003,0.0169 0.003,0.0232 8.3e-4,0.007 0.001,0.017 0.001,0.0238 -1.1e-4,0.0123 -1.1e-4,0.0123 -0.0108,0.0123 -0.01,-6e-5 -0.01,8e-5 -0.01,0.003 -1e-5,0.003 2.3e-4,0.003 0.0108,0.003 0.0108,-8.3e-4 0.0108,-8.3e-4 0.01,0.0116 -4.1e-4,0.007 -0.002,0.0182 -0.003,0.0256 -0.001,0.008 -0.004,0.0194 -0.007,0.0271 -0.002,0.008 -0.005,0.0195 -0.008,0.0263 -0.004,0.0125 -0.004,0.0125 -0.0108,0.0121 -0.003,-1.1e-4 -0.0193,-10e-4 -0.0351,-0.002 -0.0157,-8.4e-4 -0.046,-0.002 -0.0675,-0.003 -0.0213,-8.3e-4 -0.0823,-0.002 -0.13549,-0.002 -0.0532,-3.9e-4 -0.10138,-2.8e-4 -0.10712,2.2e-4 -0.0108,8.3e-4 -0.0108,8.3e-4 -0.0108,0.01 -6e-5,0.009 -6e-5,0.009 0.0609,0.01 0.0335,8.4e-4 0.0863,0.001 0.11737,8.4e-4 0.0311,-3.4e-4 0.0714,-0.001 0.0895,-0.002 0.0182,-8.3e-4 0.0457,-0.002 0.0613,-0.002 0.0155,-8.3e-4 0.0287,-10e-4 0.0291,-4.1e-4 4.2e-4,4.1e-4 -0.001,0.007 -0.004,0.0129 -0.003,0.007 -0.01,0.0208 -0.0149,0.0314 -0.005,0.0108 -0.0152,0.0281 -0.0216,0.0387 -0.0117,0.0193 -0.0117,0.0193 -0.0223,0.0184 -0.0108,-8.3e-4 -0.0108,-8.3e-4 -0.0108,0.003 -4e-5,0.004 -4e-5,0.004 0.008,0.003 0.004,-3.3e-4 0.008,-1.1e-4 0.008,4.1e-4 0,4.3e-4 -0.006,0.01 -0.0135,0.0198 -0.008,0.0108 -0.0189,0.0257 -0.0255,0.0341 -0.006,0.009 -0.0182,0.0227 -0.0259,0.0319 -0.0138,0.0163 -0.014,0.0166 -0.019,0.0155 -0.003,-4.2e-4 -0.0121,-0.002 -0.0207,-0.003 -0.009,-10e-4 -0.0192,-0.002 -0.0233,-0.002 -0.008,-1.1e-4 -0.008,-7e-5 -0.008,0.009 -6e-5,0.009 -6e-5,0.009 0.012,0.008 0.006,-4.3e-4 0.018,-0.002 0.0254,-0.002 0.008,-8.3e-4 0.0133,-0.002 0.0135,-0.002 1.6e-4,1.7e-4 -0.006,0.008 -0.0155,0.0175 -0.009,0.01 -0.0179,0.0196 -0.0203,0.0225 -0.002,0.003 -0.003,0.004 -0.002,0.003 0.001,-8.2e-4 0.01,-0.006 0.0187,-0.0119 0.009,-0.005 0.0244,-0.0165 0.0339,-0.0234 0.01,-0.008 0.0244,-0.0185 0.0329,-0.0256 0.009,-0.007 0.0234,-0.02 0.033,-0.029 0.01,-0.009 0.0244,-0.0235 0.0327,-0.0325 0.009,-0.009 0.0209,-0.0234 0.0281,-0.0322 0.008,-0.009 0.02,-0.0263 0.0287,-0.0391 0.009,-0.0129 0.0206,-0.0326 0.0264,-0.0439 0.005,-0.0113 0.0134,-0.0271 0.0168,-0.0351 0.003,-0.008 0.009,-0.0219 0.0112,-0.0308 0.003,-0.009 0.006,-0.0226 0.009,-0.0306 0.002,-0.008 0.004,-0.0226 0.005,-0.0329 0.001,-0.01 0.002,-0.0259 0.002,-0.0348 7e-5,-0.009 -4.2e-4,-0.0234 -0.001,-0.0323 -8.3e-4,-0.009 -0.002,-0.0234 -0.004,-0.0323 -0.002,-0.009 -0.004,-0.0224 -0.006,-0.0301 -0.002,-0.008 -0.005,-0.0196 -0.008,-0.0264 -0.002,-0.006 -0.006,-0.0187 -0.01,-0.0265 -0.003,-0.008 -0.009,-0.0204 -0.0128,-0.0281 -0.003,-0.008 -0.0108,-0.0207 -0.0153,-0.0287 -0.004,-0.008 -0.0129,-0.0215 -0.0184,-0.0301 -0.005,-0.009 -0.0169,-0.0245 -0.0251,-0.0354 -0.009,-0.011 -0.0199,-0.0259 -0.0261,-0.0331 -0.006,-0.008 -0.0257,-0.0278 -0.0434,-0.0458 -0.0178,-0.0179 -0.0423,-0.041 -0.0547,-0.0515 -0.0123,-0.0108 -0.0299,-0.0245 -0.0389,-0.0313 -0.009,-0.006 -0.0312,-0.0225 -0.0491,-0.0349 -0.018,-0.0123 -0.0387,-0.027 -0.046,-0.0326 -0.008,-0.005 -0.0207,-0.0161 -0.0296,-0.0233 -0.009,-0.008 -0.025,-0.021 -0.0359,-0.0305 -0.0108,-0.01 -0.0195,-0.0177 -0.0193,-0.0179 2.8e-4,-2.5e-4 0.008,2.6e-4 0.0158,10e-4 0.009,8.3e-4 0.0452,0.002 0.0817,0.003 0.0664,10e-4 0.0664,10e-4 0.0649,-0.002 -8.3e-4,-0.002 -0.002,-0.006 -0.001,-0.0108 4e-5,-0.006 4e-5,-0.006 -0.0634,-0.006 -0.0349,2.9e-4 -0.0737,10e-4 -0.0862,0.002 -0.0228,0.002 -0.0228,0.002 -0.0273,-0.002 -0.002,-0.002 -0.0128,-0.0122 -0.0227,-0.0231 -0.01,-0.0108 -0.0229,-0.025 -0.0284,-0.0315 -0.005,-0.007 -0.0155,-0.0187 -0.022,-0.0272 -0.006,-0.009 -0.0118,-0.0158 -0.0118,-0.0162 0,-4.1e-4 0.002,-4.1e-4 0.004,-3.3e-4 0.002,2.8e-4 0.0128,0.001 0.0224,0.002 0.0177,10e-4 0.0177,10e-4 0.0177,-0.004 -2e-5,-0.005 -2e-5,-0.005 -0.0198,-0.004 -0.0109,4.3e-4 -0.0221,10e-4 -0.0249,10e-4 -0.004,1.1e-4 -0.005,-4.1e-4 -0.0141,-0.0131 -0.005,-0.008 -0.0134,-0.0213 -0.0191,-0.0312 -0.005,-0.01 -0.0137,-0.0261 -0.0181,-0.0361 -0.004,-0.01 -0.009,-0.0197 -0.009,-0.0217 -0.001,-0.003 -0.001,-0.003 0.0134,-0.002 0.008,4.1e-4 0.0244,0.002 0.0364,0.002 0.0121,8.2e-4 0.0402,0.002 0.0623,0.003 0.0257,0.001 0.0871,0.002 0.16867,0.003 0.0706,4.1e-4 0.13481,3.8e-4 0.14271,-2.4e-4 0.0144,-10e-4 0.0144,-10e-4 0.0134,-0.008 -4.3e-4,-0.003 -0.001,-0.008 -0.001,-0.008 -2.8e-4,-3e-4 -0.0205,-10e-4 -0.045,-0.002 -0.0244,-8.4e-4 -0.091,-0.002 -0.14784,-0.002 -0.0569,6e-5 -0.11794,8.4e-4 -0.1357,10e-4 -0.0178,8.4e-4 -0.0493,0.002 -0.0702,0.003 -0.0221,0.001 -0.0383,0.002 -0.0391,8.4e-4 -8.3e-4,-8.4e-4 -0.003,-0.01 -0.006,-0.0187 -0.003,-0.01 -0.007,-0.0251 -0.009,-0.0343 -0.002,-0.012 -0.003,-0.0159 -0.004,-0.0134 z m 0.59659,10e-4 c -8.3e-4,0.001 -0.002,0.007 -0.005,0.0167 -0.003,0.0111 -0.009,0.0276 -0.0114,0.0365 -0.005,0.0161 -0.005,0.0161 -0.0188,0.0157 -0.008,-2e-4 -0.0172,-8.3e-4 -0.0222,-10e-4 -0.009,-8.2e-4 -0.009,-8.2e-4 -0.01,0.003 -4.1e-4,0.002 -8.2e-4,0.004 -4.1e-4,0.004 1.8e-4,1.6e-4 0.01,-3.5e-4 0.0212,-0.001 0.0115,-8.3e-4 0.0213,-8.3e-4 0.0218,-4.2e-4 3.9e-4,4.2e-4 -0.002,0.008 -0.005,0.0152 -0.003,0.008 -0.0108,0.0233 -0.0165,0.0341 -0.005,0.0108 -0.0149,0.0276 -0.0208,0.0373 -0.005,0.01 -0.0108,0.0177 -0.0109,0.0179 -1.6e-4,1.9e-4 -0.008,-3.5e-4 -0.0171,-10e-4 -0.01,-8.3e-4 -0.0294,-0.002 -0.0446,-0.003 -0.0154,-8.2e-4 -0.0562,-0.002 -0.091,-0.003 -0.0347,-8.3e-4 -0.0869,-0.002 -0.11587,-10e-4 -0.0527,4.1e-4 -0.0527,2.2e-4 -0.0529,0.01 -5e-5,0.009 -5e-5,0.01 0.0572,0.0108 0.0315,8.2e-4 0.0839,8.2e-4 0.11661,3.2e-4 0.0327,-4.2e-4 0.0722,-0.002 0.0881,-0.002 0.0158,-8.3e-4 0.0346,-0.002 0.0421,-0.002 0.0135,-8.3e-4 0.0135,-8.3e-4 0.0108,0.004 -0.002,0.003 -0.009,0.0128 -0.0151,0.0219 -0.006,0.01 -0.0158,0.0221 -0.0207,0.0285 -0.005,0.006 -0.0152,0.0197 -0.023,0.0296 -0.0141,0.0179 -0.0141,0.0179 -0.0222,0.017 -0.004,-4.1e-4 -0.01,-10e-4 -0.0115,-0.002 -0.003,-4.1e-4 -0.003,-5e-5 -0.003,0.003 -1e-5,0.002 -4.1e-4,0.004 -8.3e-4,0.006 -8.3e-4,0.002 6e-5,0.002 0.009,0.001 0.008,-8.2e-4 0.009,-4.1e-4 0.008,8.4e-4 -4.1e-4,8.3e-4 -0.0181,0.0219 -0.0388,0.0465 -0.0207,0.0246 -0.0391,0.0467 -0.0408,0.0491 -0.003,0.004 -0.003,0.004 0.01,-0.002 0.008,-0.003 0.0225,-0.013 0.0338,-0.0205 0.0114,-0.008 0.028,-0.0193 0.0368,-0.0263 0.009,-0.007 0.028,-0.0243 0.0421,-0.0383 0.0143,-0.0141 0.0317,-0.0328 0.0389,-0.0416 0.008,-0.009 0.0189,-0.0249 0.0263,-0.0357 0.008,-0.0108 0.0193,-0.0315 0.0265,-0.046 0.008,-0.0155 0.0159,-0.0344 0.0198,-0.046 0.003,-0.0108 0.008,-0.0263 0.01,-0.0344 0.002,-0.008 0.003,-0.0219 0.005,-0.0308 0.001,-0.01 0.002,-0.0238 0.001,-0.0344 -3.9e-4,-0.01 -0.002,-0.0226 -0.002,-0.0278 -8.3e-4,-0.004 -0.001,-0.008 -0.002,-0.005 z m -0.35145,0.46883 c -0.001,8.2e-4 -0.0125,0.008 -0.025,0.0161 -0.0126,0.009 -0.0305,0.0207 -0.04,0.0277 -0.01,0.008 -0.0257,0.02 -0.036,0.0288 -0.0108,0.009 -0.0278,0.0248 -0.0389,0.0357 -0.0111,0.0109 -0.0267,0.0274 -0.0347,0.0368 -0.008,0.01 -0.0206,0.0249 -0.0277,0.0347 -0.008,0.01 -0.0169,0.0237 -0.0215,0.0312 -0.004,0.008 -0.0127,0.0213 -0.0179,0.0311 -0.005,0.01 -0.0125,0.0248 -0.0161,0.0336 -0.003,0.009 -0.01,0.0245 -0.0128,0.0349 -0.003,0.0108 -0.008,0.0279 -0.01,0.0389 -0.003,0.0184 -0.004,0.0229 -0.004,0.0581 -2.9e-4,0.0304 1.7e-4,0.0414 0.002,0.0543 0.001,0.009 0.004,0.0248 0.008,0.0352 0.002,0.0108 0.008,0.0263 0.0108,0.0353 0.003,0.009 0.009,0.0237 0.0131,0.033 0.004,0.01 0.0115,0.0245 0.0165,0.0338 0.005,0.01 0.0155,0.027 0.0234,0.0391 0.008,0.0122 0.0206,0.0304 0.0284,0.0406 0.008,0.01 0.0185,0.0237 0.024,0.0302 0.0806,0.11225 0.19376,0.15286 0.31711,0.19355 l -0.0811,-0.0794 c -0.01,-0.008 -0.0302,-0.0299 -0.0404,-0.0382 -0.01,-0.009 -0.0213,-0.0178 -0.0249,-0.0211 -0.006,-0.006 -0.006,-0.006 0.002,-0.005 0.008,8.2e-4 0.008,8.2e-4 0.008,-0.01 -4.1e-4,-0.0108 -4.1e-4,-0.0108 -0.0186,-0.01 -0.0182,8.4e-4 -0.0182,8.4e-4 -0.0493,-0.0305 -0.0171,-0.0173 -0.0372,-0.0388 -0.0445,-0.0476 -0.008,-0.009 -0.0132,-0.0164 -0.0129,-0.0167 3.4e-4,-3.4e-4 0.01,1.6e-4 0.0217,0.001 0.0116,8.4e-4 0.0595,0.002 0.10637,0.003 0.0469,8.2e-4 0.0922,8.2e-4 0.10051,4.1e-4 0.0152,-8.3e-4 0.0152,-8.3e-4 0.0153,-0.01 1e-5,-0.009 1e-5,-0.009 -0.0374,-0.01 -0.0206,-8.3e-4 -0.0618,-0.001 -0.0916,-8.3e-4 -0.0299,3.4e-4 -0.0658,10e-4 -0.0799,0.002 -0.0141,8.2e-4 -0.03,0.002 -0.0352,0.002 -0.01,8.3e-4 -0.01,8.3e-4 -0.0207,-0.0144 -0.006,-0.009 -0.0157,-0.0222 -0.0213,-0.0308 -0.005,-0.009 -0.0148,-0.0238 -0.0205,-0.0339 -0.005,-0.01 -0.01,-0.0191 -0.01,-0.0199 0,-10e-4 0.004,-10e-4 0.0161,-8.4e-4 0.0161,8.4e-4 0.0161,8.4e-4 0.0161,-0.004 3e-5,-0.005 3e-5,-0.005 -0.0186,-0.005 -0.0186,2.8e-4 -0.0186,2.8e-4 -0.0235,-0.0113 -0.002,-0.007 -0.008,-0.019 -0.0108,-0.0281 -0.003,-0.009 -0.008,-0.024 -0.009,-0.0333 -0.002,-0.01 -0.004,-0.0197 -0.004,-0.0232 -8.3e-4,-0.006 -8.3e-4,-0.006 0.0108,-0.005 0.007,4.1e-4 0.0236,0.002 0.0386,0.002 0.0149,8.2e-4 0.0525,0.002 0.0836,0.003 0.0366,10e-4 0.0955,0.002 0.16794,0.002 0.0613,-1e-4 0.11528,-4.2e-4 0.11991,-8.3e-4 0.009,-8.3e-4 0.009,-8.3e-4 0.009,-0.008 4e-5,-0.007 4e-5,-0.007 -0.0149,-0.008 -0.009,-4.1e-4 -0.0579,-0.002 -0.11036,-0.002 -0.0593,-8.3e-4 -0.11856,-10e-4 -0.15694,-3.4e-4 -0.0339,8.4e-4 -0.0752,0.002 -0.0917,0.002 -0.0166,8.2e-4 -0.0361,10e-4 -0.0433,0.002 -0.0132,1.6e-4 -0.0132,1.6e-4 -0.0129,-0.0299 2.9e-4,-0.0244 8.4e-4,-0.0333 0.003,-0.0469 0.002,-0.01 0.003,-0.0188 0.004,-0.0212 0.001,-0.003 0.002,-0.004 0.005,-0.004 0.002,1.1e-4 0.0119,8.4e-4 0.0212,0.001 0.0169,10e-4 0.0169,10e-4 0.0169,-0.004 4e-5,-0.005 4e-5,-0.005 -0.0126,-0.004 -0.006,4.1e-4 -0.016,10e-4 -0.0204,0.002 -0.008,8.3e-4 -0.008,8.3e-4 -0.007,-0.004 4.1e-4,-0.002 0.003,-0.0115 0.007,-0.0195 0.003,-0.008 0.008,-0.0209 0.0112,-0.0285 0.003,-0.008 0.0108,-0.0223 0.0156,-0.0327 0.01,-0.0188 0.01,-0.0188 0.0216,-0.0179 0.007,4.2e-4 0.0212,0.002 0.0325,0.002 0.0113,8.3e-4 0.0419,0.002 0.0682,0.003 0.0262,0.001 0.0774,0.002 0.11391,0.002 0.0364,-2e-5 0.0665,-3.9e-4 0.0668,-8.3e-4 3.3e-4,-3.9e-4 3.3e-4,-0.004 5e-5,-0.009 -4.1e-4,-0.009 -4.1e-4,-0.009 -0.0132,-0.01 -0.007,-8.2e-4 -0.0507,-8.2e-4 -0.097,-8.2e-4 -0.0464,1.6e-4 -0.0968,8.2e-4 -0.11222,0.002 -0.0154,8.2e-4 -0.0364,0.002 -0.0468,0.003 -0.0108,8.2e-4 -0.0192,0.001 -0.0195,8.2e-4 -3.3e-4,-3.4e-4 0.003,-0.007 0.008,-0.014 0.004,-0.008 0.0135,-0.0212 0.0201,-0.0309 0.007,-0.01 0.0189,-0.0267 0.0273,-0.0377 0.0154,-0.0202 0.0154,-0.0202 0.0306,-0.0182 0.009,8.2e-4 0.0175,0.002 0.0206,0.002 0.005,1.6e-4 0.005,1.6e-4 0.004,-0.007 -3.9e-4,-0.003 -8.3e-4,-0.006 -0.001,-0.006 -2.8e-4,-3.4e-4 -0.008,6e-5 -0.0162,8.2e-4 -0.009,8.4e-4 -0.0159,0.001 -0.0161,0.001 -2.3e-4,-2.2e-4 0.005,-0.006 0.0114,-0.0143 0.007,-0.008 0.02,-0.0231 0.0302,-0.0341 0.01,-0.0112 0.0226,-0.0248 0.0277,-0.0304 0.005,-0.005 0.009,-0.01 0.008,-0.009 z" />
    <ellipse
       style="fill:#da7162;fill-opacity:1;fill-rule:evenodd;stroke:#000000;stroke-width:0.00558476;stroke-dasharray:none"
       id="path33-16"
       cx="246.59641"
       cy="323.51035"
       rx="0.020928552"
       ry="0.021589454" />
    <ellipse
       style="fill:#2b8cf2;fill-opacity:1;fill-rule:evenodd;stroke:#000000;stroke-width:0.00558476;stroke-dasharray:none"
       id="path33-16-6"
       cx="246.93016"
       cy="323.40244"
       rx="0.020928552"
       ry="0.021589454" />
    <ellipse
       style="fill:url(#linearGradient23);fill-rule:evenodd;stroke:#000000;stroke-width:0.00558476;stroke-dasharray:none"
       id="path33-35"
       cx="246.81732"
       cy="323.61981"
       rx="0.020928552"
       ry="0.021589454" />
    <ellipse
       style="fill:url(#linearGradient24);fill-rule:evenodd;stroke:#000000;stroke-width:0.00558476;stroke-dasharray:none"
       id="path33"
       cx="246.67577"
       cy="323.89233"
       rx="0.020928552"
       ry="0.021589454" />
  </g>
</svg>
